<svg xmlns="http://www.w3.org/2000/svg" viewBox="0 0 1200 720" role="img" aria-labelledby="title desc">
  <title id="title">Football archive wall placeholder</title>
  <desc id="desc">An original abstract wall of match cards and subtle stadium light for archive pages.</desc>
  <defs>
    <linearGradient id="bg" x1="0" y1="0" x2="1" y2="1">
      <stop stop-color="#08100c"/>
      <stop offset=".52" stop-color="#111a14"/>
      <stop offset="1" stop-color="#050807"/>
    </linearGradient>
    <radialGradient id="light" cx="72%" cy="20%" r="54%">
      <stop stop-color="#c8aa55" stop-opacity=".28"/>
      <stop offset=".4" stop-color="#1fbf72" stop-opacity=".12"/>
      <stop offset="1" stop-color="#050807" stop-opacity="0"/>
    </radialGradient>
  </defs>
  <rect width="1200" height="720" fill="url(#bg)"/>
  <rect width="1200" height="720" fill="url(#light)"/>
  <g opacity=".62">
    <rect x="142" y="142" width="166" height="232" rx="8" fill="#172019" stroke="#50624f"/>
    <rect x="334" y="116" width="166" height="232" rx="8" fill="#101813" stroke="#34483a"/>
    <rect x="526" y="156" width="166" height="232" rx="8" fill="#152119" stroke="#50624f"/>
    <rect x="718" y="112" width="166" height="232" rx="8" fill="#121a15" stroke="#34483a"/>
    <rect x="910" y="152" width="166" height="232" rx="8" fill="#172019" stroke="#50624f"/>
  </g>
  <g fill="none" stroke="#d7b665" stroke-opacity=".32" stroke-width="2">
    <path d="M160 326h130M352 300h130M544 338h130M736 294h130M928 334h130"/>
  </g>
  <g fill="#dfe8df" opacity=".2">
    <circle cx="204" cy="196" r="18"/><circle cx="396" cy="170" r="18"/><circle cx="588" cy="210" r="18"/>
    <circle cx="780" cy="166" r="18"/><circle cx="972" cy="206" r="18"/>
  </g>
  <path d="M0 510c188 38 364 52 600 52s412-14 600-52v210H0z" fill="#050807" opacity=".64"/>
</svg>
